<svg xmlns="http://www.w3.org/2000/svg" width="1200" height="1160" viewBox="0 0 1200 1160" role="img" aria-labelledby="title desc">
  <title id="title">Baltic theme code preview</title>
  <desc id="desc">Baltic theme preview with vertically stacked Python, Go, and Zig code samples.</desc>
  <defs>
    <style>
      .ui { font-family: Inter, ui-sans-serif, system-ui, -apple-system, BlinkMacSystemFont, "Segoe UI", sans-serif; }
      .mono { font-family: "SFMono-Regular", Menlo, Consolas, monospace; }
    </style>
    <clipPath id="python-clip"><rect x="78" y="210" width="1044" height="250"/></clipPath>
    <clipPath id="go-clip"><rect x="78" y="512" width="1044" height="346"/></clipPath>
    <clipPath id="zig-clip"><rect x="78" y="886" width="1044" height="230"/></clipPath>
  </defs>

  <rect width="1200" height="1160" fill="#08141a"/>
  <rect x="34" y="34" width="1132" height="1092" rx="12" fill="#101d24" stroke="#1a2b33"/>

  <text x="78" y="98" class="ui" fill="#f0eadc" font-size="34" font-weight="750">Baltic</text>

  <g transform="translate(764 74)">
    <rect width="34" height="34" rx="5" fill="#08141a" stroke="#1a2b33"/>
    <rect x="44" width="34" height="34" rx="5" fill="#101d24"/>
    <rect x="88" width="34" height="34" rx="5" fill="#1a2b33"/>
    <rect x="132" width="34" height="34" rx="5" fill="#263d47"/>
    <rect x="176" width="34" height="34" rx="5" fill="#d1bda3"/>
    <rect x="220" width="34" height="34" rx="5" fill="#9ebdbe"/>
    <rect x="264" width="34" height="34" rx="5" fill="#c9b27a"/>
    <rect x="308" width="34" height="34" rx="5" fill="#d99f6b"/>
  </g>

  <rect x="78" y="160" width="1044" height="300" rx="8" fill="#08141a" stroke="#1a2b33"/>
  <rect x="78" y="160" width="1044" height="42" rx="8" fill="#101d24"/>
  <rect x="78" y="194" width="1044" height="8" fill="#101d24"/>
  <text x="106" y="187" class="mono" fill="#d1bda3" font-size="14">python</text>
  <text x="1014" y="187" class="mono" fill="#9ebdbe" font-size="13">main.py</text>
  <g clip-path="url(#python-clip)" class="mono" font-size="19">
    <text x="110" y="246" fill="#d8c8ad" font-weight="700">from pathlib import Path</text>
    <text x="110" y="284" fill="#d1bda3">def load_theme(name: str) -&gt; tuple[int, Path]:</text>
    <text x="150" y="322" fill="#9f927f" font-style="italic"># Warm foreground, quiet accents.</text>
    <text x="150" y="360" fill="#d1bda3">path = Path("themes") / name</text>
    <text x="150" y="398" fill="#d1bda3">return len(name), path</text>
  </g>

  <rect x="78" y="496" width="1044" height="362" rx="8" fill="#08141a" stroke="#1a2b33"/>
  <rect x="78" y="496" width="1044" height="42" rx="8" fill="#101d24"/>
  <rect x="78" y="530" width="1044" height="8" fill="#101d24"/>
  <text x="106" y="523" class="mono" fill="#d1bda3" font-size="14">go</text>
  <text x="1012" y="523" class="mono" fill="#9ebdbe" font-size="13">main.go</text>
  <g clip-path="url(#go-clip)" class="mono" font-size="19">
    <text x="110" y="582" fill="#d8c8ad" font-weight="700">package main</text>
    <text x="110" y="620" fill="#d8c8ad" font-weight="700">import "fmt"</text>
    <text x="110" y="658" fill="#d1bda3">type Palette struct {</text>
    <text x="150" y="696" fill="#d1bda3">Foreground string</text>
    <text x="110" y="734" fill="#d1bda3">}</text>
    <text x="110" y="772" fill="#d1bda3">func main() {</text>
    <text x="150" y="810" fill="#d1bda3">fmt.Println("Baltic")</text>
    <text x="110" y="848" fill="#d1bda3">}</text>
  </g>

  <rect x="78" y="874" width="1044" height="242" rx="8" fill="#08141a" stroke="#1a2b33"/>
  <rect x="78" y="874" width="1044" height="42" rx="8" fill="#101d24"/>
  <rect x="78" y="908" width="1044" height="8" fill="#101d24"/>
  <text x="106" y="901" class="mono" fill="#d1bda3" font-size="14">zig</text>
  <text x="1006" y="901" class="mono" fill="#9ebdbe" font-size="13">main.zig</text>
  <g clip-path="url(#zig-clip)" class="mono" font-size="19">
    <text x="110" y="954" fill="#d8c8ad" font-weight="700">const std = @import("std");</text>
    <text x="110" y="992" fill="#d1bda3">pub fn main() !void {</text>
    <text x="150" y="1030" fill="#d1bda3">const name = "Baltic";</text>
    <text x="150" y="1068" fill="#d1bda3">try std.io.getStdOut().writer().print("{s}\n", .{name});</text>
    <text x="110" y="1106" fill="#d1bda3">}</text>
  </g>
</svg>
