<svg xmlns="http://www.w3.org/2000/svg" width="900" height="300" viewBox="0 0 900 300" role="img" aria-labelledby="title desc">
  <title id="title">Baltic logo</title>
  <desc id="desc">Baltic theme logo with calm low waves inspired by the Baltic Sea.</desc>
  <rect width="900" height="300" rx="18" fill="#08141a"/>
  <text x="74" y="100" fill="#f0eadc" font-family="Inter, ui-sans-serif, system-ui, -apple-system, BlinkMacSystemFont, Segoe UI, sans-serif" font-size="58" font-weight="800">Baltic</text>
  <circle cx="748" cy="86" r="22" fill="#d99f6b"/>
  <path d="M76 178 C140 148 198 148 262 178 C326 208 384 208 448 178 C512 148 570 148 634 178 C698 208 756 208 824 178" fill="none" stroke="#263d47" stroke-width="18" stroke-linecap="round" opacity="0.85"/>
  <path d="M76 212 C140 182 198 182 262 212 C326 242 384 242 448 212 C512 182 570 182 634 212 C698 242 756 242 824 212" fill="none" stroke="#9ebdbe" stroke-width="10" stroke-linecap="round"/>
  <path d="M76 242 C140 212 198 212 262 242 C326 272 384 272 448 242 C512 212 570 212 634 242 C698 272 756 272 824 242" fill="none" stroke="#d1bda3" stroke-width="6" stroke-linecap="round" opacity="0.92"/>
</svg>
