<svg xmlns="http://www.w3.org/2000/svg" width="1200" height="1180" viewBox="0 0 1200 1180" role="img" aria-labelledby="title desc">
  <title id="title">Baltic theme code preview</title>
  <desc id="desc">Baltic theme preview with vertically stacked Python, Go, and Zig code samples.</desc>
  <defs>
    <style>
      .ui { font-family: Inter, ui-sans-serif, system-ui, -apple-system, BlinkMacSystemFont, "Segoe UI", sans-serif; }
      .mono { font-family: "SFMono-Regular", Menlo, Consolas, monospace; }
    </style>
    <clipPath id="python-clip"><rect x="78" y="218" width="1044" height="234" rx="0"/></clipPath>
    <clipPath id="go-clip"><rect x="78" y="528" width="1044" height="270" rx="0"/></clipPath>
    <clipPath id="zig-clip"><rect x="78" y="874" width="1044" height="198" rx="0"/></clipPath>
  </defs>

  <rect width="1200" height="1180" fill="#08141a"/>
  <rect x="34" y="34" width="1132" height="1112" rx="12" fill="#101d24" stroke="#1a2b33"/>

  <g class="ui">
    <text x="78" y="94" fill="#f0eadc" font-size="34" font-weight="750">Baltic</text>
    <text x="78" y="126" fill="#9f927f" font-size="16">cream text, deep blue-black surfaces, quiet syntax accents</text>
  </g>

  <g transform="translate(764 74)">
    <rect width="34" height="34" rx="5" fill="#08141a" stroke="#1a2b33"/>
    <rect x="44" width="34" height="34" rx="5" fill="#101d24"/>
    <rect x="88" width="34" height="34" rx="5" fill="#1a2b33"/>
    <rect x="132" width="34" height="34" rx="5" fill="#263d47"/>
    <rect x="176" width="34" height="34" rx="5" fill="#d1bda3"/>
    <rect x="220" width="34" height="34" rx="5" fill="#9ebdbe"/>
    <rect x="264" width="34" height="34" rx="5" fill="#c9b27a"/>
    <rect x="308" width="34" height="34" rx="5" fill="#d99f6b"/>
  </g>

  <rect x="78" y="176" width="1044" height="276" rx="8" fill="#08141a" stroke="#1a2b33"/>
  <rect x="78" y="176" width="1044" height="42" rx="8" fill="#101d24"/>
  <rect x="78" y="210" width="1044" height="8" fill="#101d24"/>
  <text x="106" y="203" class="mono" fill="#d1bda3" font-size="14">python</text>
  <text x="1014" y="203" class="mono" fill="#9ebdbe" font-size="13">main.py</text>
  <g clip-path="url(#python-clip)" class="mono" font-size="18">
    <text x="110" y="262" xml:space="preserve"><tspan fill="#d8c8ad" font-weight="700">from</tspan><tspan fill="#d1bda3"> pathlib </tspan><tspan fill="#d8c8ad" font-weight="700">import</tspan><tspan fill="#9ebdbe"> Path</tspan></text>
    <text x="110" y="298" xml:space="preserve"><tspan fill="#d8c8ad" font-weight="700">def</tspan><tspan fill="#9ebdbe"> load_theme</tspan><tspan fill="#d1bda3">(name):</tspan></text>
    <text x="110" y="334" xml:space="preserve"><tspan fill="#9f927f" font-style="italic">    # warm foreground, quiet accents</tspan></text>
    <text x="110" y="370" xml:space="preserve"><tspan fill="#d1bda3">    path = </tspan><tspan fill="#9ebdbe">Path</tspan><tspan fill="#d1bda3">(</tspan><tspan fill="#c9b27a">"themes"</tspan><tspan fill="#d1bda3">)</tspan></text>
    <text x="110" y="406" xml:space="preserve"><tspan fill="#d8c8ad" font-weight="700">    return</tspan><tspan fill="#b8c9c8" font-weight="700"> len</tspan><tspan fill="#d1bda3">(name), path</tspan></text>
  </g>

  <rect x="78" y="486" width="1044" height="312" rx="8" fill="#08141a" stroke="#1a2b33"/>
  <rect x="78" y="486" width="1044" height="42" rx="8" fill="#101d24"/>
  <rect x="78" y="520" width="1044" height="8" fill="#101d24"/>
  <text x="106" y="513" class="mono" fill="#d1bda3" font-size="14">go</text>
  <text x="1012" y="513" class="mono" fill="#9ebdbe" font-size="13">main.go</text>
  <g clip-path="url(#go-clip)" class="mono" font-size="18">
    <text x="110" y="572" xml:space="preserve"><tspan fill="#d8c8ad" font-weight="700">package</tspan><tspan fill="#d1bda3"> main</tspan></text>
    <text x="110" y="608" xml:space="preserve"><tspan fill="#d8c8ad" font-weight="700">import</tspan><tspan fill="#d1bda3"> </tspan><tspan fill="#c9b27a">"fmt"</tspan></text>
    <text x="110" y="644" xml:space="preserve"><tspan fill="#d8c8ad" font-weight="700">type</tspan><tspan fill="#9ebdbe"> Palette</tspan><tspan fill="#d8c8ad" font-weight="700"> struct</tspan><tspan fill="#d1bda3"> {</tspan></text>
    <text x="110" y="680" xml:space="preserve"><tspan fill="#d1bda3">    Foreground </tspan><tspan fill="#9ebdbe">string</tspan></text>
    <text x="110" y="716" xml:space="preserve"><tspan fill="#d1bda3">}</tspan></text>
    <text x="110" y="752" xml:space="preserve"><tspan fill="#d8c8ad" font-weight="700">func</tspan><tspan fill="#9ebdbe"> main</tspan><tspan fill="#d1bda3">() { </tspan><tspan fill="#9ebdbe">fmt.Println</tspan><tspan fill="#d1bda3">(</tspan><tspan fill="#c9b27a">"Baltic"</tspan><tspan fill="#d1bda3">) }</tspan></text>
  </g>

  <rect x="78" y="832" width="1044" height="240" rx="8" fill="#08141a" stroke="#1a2b33"/>
  <rect x="78" y="832" width="1044" height="42" rx="8" fill="#101d24"/>
  <rect x="78" y="866" width="1044" height="8" fill="#101d24"/>
  <text x="106" y="859" class="mono" fill="#d1bda3" font-size="14">zig</text>
  <text x="1006" y="859" class="mono" fill="#9ebdbe" font-size="13">main.zig</text>
  <g clip-path="url(#zig-clip)" class="mono" font-size="18">
    <text x="110" y="918" xml:space="preserve"><tspan fill="#d8c8ad" font-weight="700">const</tspan><tspan fill="#d1bda3"> std = </tspan><tspan fill="#9ebdbe">@import</tspan><tspan fill="#d1bda3">(</tspan><tspan fill="#c9b27a">"std"</tspan><tspan fill="#d1bda3">);</tspan></text>
    <text x="110" y="954" xml:space="preserve"><tspan fill="#d8c8ad" font-weight="700">pub fn</tspan><tspan fill="#9ebdbe"> main</tspan><tspan fill="#d1bda3">() </tspan><tspan fill="#b79ab2">!void</tspan><tspan fill="#d1bda3"> {</tspan></text>
    <text x="110" y="990" xml:space="preserve"><tspan fill="#d8c8ad" font-weight="700">    const</tspan><tspan fill="#d1bda3"> name = </tspan><tspan fill="#c9b27a">"Baltic"</tspan><tspan fill="#d1bda3">;</tspan></text>
    <text x="110" y="1026" xml:space="preserve"><tspan fill="#d8c8ad" font-weight="700">    try</tspan><tspan fill="#d1bda3"> out.</tspan><tspan fill="#9ebdbe">print</tspan><tspan fill="#d1bda3">(</tspan><tspan fill="#c9b27a">"{s}\n"</tspan><tspan fill="#d1bda3">, .{name});</tspan></text>
  </g>

  <g transform="translate(78 1110)">
    <text class="ui" x="0" y="0" fill="#9f927f" font-size="13">background</text>
    <rect x="92" y="-13" width="46" height="18" rx="3" fill="#08141a" stroke="#1a2b33"/>
    <text class="ui" x="164" y="0" fill="#9f927f" font-size="13">text</text>
    <rect x="200" y="-13" width="46" height="18" rx="3" fill="#d1bda3"/>
    <text class="ui" x="272" y="0" fill="#9f927f" font-size="13">functions</text>
    <rect x="348" y="-13" width="46" height="18" rx="3" fill="#9ebdbe"/>
    <text class="ui" x="420" y="0" fill="#9f927f" font-size="13">strings</text>
    <rect x="480" y="-13" width="46" height="18" rx="3" fill="#c9b27a"/>
    <text class="ui" x="552" y="0" fill="#9f927f" font-size="13">errors</text>
    <rect x="602" y="-13" width="46" height="18" rx="3" fill="#c57972"/>
  </g>
</svg>
