<svg xmlns="http://www.w3.org/2000/svg" width="900" height="300" viewBox="0 0 900 300" role="img" aria-labelledby="title desc">
  <title id="title">Baltic logo</title>
  <desc id="desc">Baltic theme logo with calm low waves inspired by the Baltic Sea.</desc>
  <rect width="900" height="300" rx="18" fill="#08141a"/>
  <text x="74" y="88" fill="#f0eadc" font-family="Inter, ui-sans-serif, system-ui, -apple-system, BlinkMacSystemFont, Segoe UI, sans-serif" font-size="52" font-weight="800">Baltic</text>
  <text x="76" y="122" fill="#9f927f" font-family="Inter, ui-sans-serif, system-ui, -apple-system, BlinkMacSystemFont, Segoe UI, sans-serif" font-size="16">cream-forward colors for cold water and low light</text>
  <circle cx="742" cy="86" r="22" fill="#d99f6b"/>
  <path d="M76 188 C140 158 198 158 262 188 C326 218 384 218 448 188 C512 158 570 158 634 188 C698 218 756 218 824 188" fill="none" stroke="#263d47" stroke-width="18" stroke-linecap="round" opacity="0.85"/>
  <path d="M76 214 C140 184 198 184 262 214 C326 244 384 244 448 214 C512 184 570 184 634 214 C698 244 756 244 824 214" fill="none" stroke="#9ebdbe" stroke-width="10" stroke-linecap="round"/>
  <path d="M76 240 C140 210 198 210 262 240 C326 270 384 270 448 240 C512 210 570 210 634 240 C698 270 756 270 824 240" fill="none" stroke="#d1bda3" stroke-width="6" stroke-linecap="round" opacity="0.92"/>
</svg>
